<svg width="118" height="23" viewBox="0 0 118 23" fill="none" xmlns="http://www.w3.org/2000/svg">
<path d="M0.7224 22V0.548799H13.6456V3.7632H4.5272V9.2408H12.2352V12.4552H4.5272V18.7856H13.9736V22H0.7224ZM14.8592 22L19.976 13.6032L15.1872 5.8952H19.2544L21.0584 8.9456C21.2989 9.38293 21.5395 9.84213 21.78 10.3232C22.0424 10.7824 22.2939 11.2307 22.5344 11.668H22.6656C22.8624 11.2307 23.0701 10.7824 23.2888 10.3232C23.5075 9.84213 23.7152 9.38293 23.912 8.9456L25.4536 5.8952H29.3568L24.6008 14.0296L29.7176 22H25.6504L23.6824 18.8184C23.42 18.3373 23.1467 17.8563 22.8624 17.3752C22.6 16.8941 22.3267 16.424 22.0424 15.9648H21.9112C21.6925 16.424 21.4629 16.8941 21.2224 17.3752C20.9819 17.8344 20.7413 18.3155 20.5008 18.8184L18.7952 22H14.8592ZM36.1687 22.3936C34.7692 22.3936 33.6212 21.9563 32.7247 21.0816C31.85 20.2069 31.4127 19.0699 31.4127 17.6704C31.4127 15.9429 32.1671 14.6091 33.6759 13.6688C35.1847 12.7067 37.59 12.0507 40.8919 11.7008C40.87 10.848 40.6404 10.1155 40.2031 9.5032C39.7876 8.86907 39.0332 8.552 37.9399 8.552C37.1527 8.552 36.3764 8.70507 35.6111 9.0112C34.8676 9.31733 34.1351 9.68907 33.4135 10.1264L32.0359 7.6008C32.9324 7.03227 33.9383 6.54027 35.0535 6.1248C36.1906 5.70933 37.3932 5.5016 38.6615 5.5016C40.6732 5.5016 42.1711 6.10293 43.1551 7.3056C44.161 8.4864 44.6639 10.2029 44.6639 12.4552V22H41.5479L41.2855 20.2288H41.1543C40.4327 20.8411 39.6564 21.3549 38.8255 21.7704C38.0164 22.1859 37.1308 22.3936 36.1687 22.3936ZM37.3823 19.4416C38.0383 19.4416 38.6287 19.2885 39.1535 18.9824C39.7002 18.6544 40.2796 18.2171 40.8919 17.6704V14.0624C38.7052 14.3467 37.1855 14.7731 36.3327 15.3416C35.4799 15.8883 35.0535 16.5661 35.0535 17.3752C35.0535 18.0968 35.2722 18.6216 35.7095 18.9496C36.1468 19.2776 36.7044 19.4416 37.3823 19.4416ZM49.178 22V5.8952H52.294L52.5564 8.0928H52.6876C53.3655 7.3712 54.098 6.75893 54.8852 6.256C55.6943 5.75307 56.6017 5.5016 57.6076 5.5016C58.7884 5.5016 59.7287 5.764 60.4284 6.2888C61.15 6.79173 61.6967 7.49147 62.0684 8.388C62.8337 7.55707 63.6319 6.86827 64.4628 6.3216C65.3156 5.77493 66.2449 5.5016 67.2508 5.5016C68.9564 5.5016 70.2137 6.0592 71.0228 7.1744C71.8319 8.2896 72.2364 9.864 72.2364 11.8976V22H68.4316V12.3896C68.4316 11.0557 68.2239 10.1155 67.8084 9.5688C67.4148 9.02213 66.8025 8.7488 65.9716 8.7488C64.9657 8.7488 63.8396 9.41573 62.5932 10.7496V22H58.8212V12.3896C58.8212 11.0557 58.6135 10.1155 58.198 9.5688C57.8044 9.02213 57.1812 8.7488 56.3284 8.7488C55.3225 8.7488 54.1964 9.41573 52.95 10.7496V22H49.178ZM83.709 22.3936C82.222 22.3936 80.8772 22.0656 79.6746 21.4096C78.4719 20.7317 77.5207 19.7696 76.821 18.5232C76.1212 17.2549 75.7714 15.7352 75.7714 13.964C75.7714 12.2147 76.1212 10.7059 76.821 9.4376C77.5426 8.16933 78.4719 7.19627 79.609 6.5184C80.746 5.84053 81.9378 5.5016 83.1842 5.5016C84.6492 5.5016 85.8738 5.8296 86.8578 6.4856C87.8418 7.11973 88.5852 8.01627 89.0882 9.1752C89.5911 10.3123 89.8426 11.6352 89.8426 13.144C89.8426 13.9312 89.7879 14.5435 89.6786 14.9808H79.445C79.6199 16.4021 80.1338 17.5064 80.9866 18.2936C81.8394 19.0808 82.9108 19.4744 84.201 19.4744C84.9007 19.4744 85.5458 19.376 86.1362 19.1792C86.7484 18.9605 87.3498 18.6653 87.9402 18.2936L89.2194 20.6552C88.454 21.1581 87.6012 21.5736 86.661 21.9016C85.7207 22.2296 84.7367 22.3936 83.709 22.3936ZM79.4122 12.4224H86.5626C86.5626 11.176 86.2892 10.2029 85.7426 9.5032C85.1959 8.7816 84.3759 8.4208 83.2826 8.4208C82.3423 8.4208 81.5004 8.77067 80.757 9.4704C80.0354 10.1483 79.5871 11.1323 79.4122 12.4224ZM93.4452 22V5.8952H96.5612L96.8236 8.7488H96.9548C97.5233 7.6992 98.2121 6.90107 99.0212 6.3544C99.8302 5.78587 100.661 5.5016 101.514 5.5016C102.279 5.5016 102.892 5.61093 103.351 5.8296L102.695 9.1096C102.411 9.02213 102.148 8.95653 101.908 8.9128C101.667 8.86907 101.372 8.8472 101.022 8.8472C100.388 8.8472 99.7209 9.09867 99.0212 9.6016C98.3214 10.0827 97.7201 10.9355 97.2172 12.16V22H93.4452ZM108.719 22.3936C107.32 22.3936 106.172 21.9563 105.275 21.0816C104.401 20.2069 103.963 19.0699 103.963 17.6704C103.963 15.9429 104.718 14.6091 106.227 13.6688C107.735 12.7067 110.141 12.0507 113.443 11.7008C113.421 10.848 113.191 10.1155 112.754 9.5032C112.338 8.86907 111.584 8.552 110.491 8.552C109.703 8.552 108.927 8.70507 108.162 9.0112C107.418 9.31733 106.686 9.68907 105.964 10.1264L104.587 7.6008C105.483 7.03227 106.489 6.54027 107.604 6.1248C108.741 5.70933 109.944 5.5016 111.212 5.5016C113.224 5.5016 114.722 6.10293 115.706 7.3056C116.712 8.4864 117.215 10.2029 117.215 12.4552V22H114.099L113.836 20.2288H113.705C112.983 20.8411 112.207 21.3549 111.376 21.7704C110.567 22.1859 109.682 22.3936 108.719 22.3936ZM109.933 19.4416C110.589 19.4416 111.179 19.2885 111.704 18.9824C112.251 18.6544 112.83 18.2171 113.443 17.6704V14.0624C111.256 14.3467 109.736 14.7731 108.883 15.3416C108.031 15.8883 107.604 16.5661 107.604 17.3752C107.604 18.0968 107.823 18.6216 108.26 18.9496C108.698 19.2776 109.255 19.4416 109.933 19.4416Z" fill="#1C00FF"/>
</svg>
