<svg width="126" height="39" viewBox="0 0 126 39" fill="none" xmlns="http://www.w3.org/2000/svg">
<path d="M2.7224 32V10.5488H15.6456V13.7632H6.5272V19.2408H14.2352V22.4552H6.5272V28.7856H15.9736V32H2.7224ZM16.8592 32L21.976 23.6032L17.1872 15.8952H21.2544L23.0584 18.9456C23.2989 19.3829 23.5395 19.8421 23.78 20.3232C24.0424 20.7824 24.2939 21.2307 24.5344 21.668H24.6656C24.8624 21.2307 25.0701 20.7824 25.2888 20.3232C25.5075 19.8421 25.7152 19.3829 25.912 18.9456L27.4536 15.8952H31.3568L26.6008 24.0296L31.7176 32H27.6504L25.6824 28.8184C25.42 28.3373 25.1467 27.8563 24.8624 27.3752C24.6 26.8941 24.3267 26.424 24.0424 25.9648H23.9112C23.6925 26.424 23.4629 26.8941 23.2224 27.3752C22.9819 27.8344 22.7413 28.3155 22.5008 28.8184L20.7952 32H16.8592ZM38.1687 32.3936C36.7692 32.3936 35.6212 31.9563 34.7247 31.0816C33.85 30.2069 33.4127 29.0699 33.4127 27.6704C33.4127 25.9429 34.1671 24.6091 35.6759 23.6688C37.1847 22.7067 39.59 22.0507 42.8919 21.7008C42.87 20.848 42.6404 20.1155 42.2031 19.5032C41.7876 18.8691 41.0332 18.552 39.9399 18.552C39.1527 18.552 38.3764 18.7051 37.6111 19.0112C36.8676 19.3173 36.1351 19.6891 35.4135 20.1264L34.0359 17.6008C34.9324 17.0323 35.9383 16.5403 37.0535 16.1248C38.1906 15.7093 39.3932 15.5016 40.6615 15.5016C42.6732 15.5016 44.1711 16.1029 45.1551 17.3056C46.161 18.4864 46.6639 20.2029 46.6639 22.4552V32H43.5479L43.2855 30.2288H43.1543C42.4327 30.8411 41.6564 31.3549 40.8255 31.7704C40.0164 32.1859 39.1308 32.3936 38.1687 32.3936ZM39.3823 29.4416C40.0383 29.4416 40.6287 29.2885 41.1535 28.9824C41.7002 28.6544 42.2796 28.2171 42.8919 27.6704V24.0624C40.7052 24.3467 39.1855 24.7731 38.3327 25.3416C37.4799 25.8883 37.0535 26.5661 37.0535 27.3752C37.0535 28.0968 37.2722 28.6216 37.7095 28.9496C38.1468 29.2776 38.7044 29.4416 39.3823 29.4416ZM51.178 32V15.8952H54.294L54.5564 18.0928H54.6876C55.3655 17.3712 56.098 16.7589 56.8852 16.256C57.6943 15.7531 58.6017 15.5016 59.6076 15.5016C60.7884 15.5016 61.7287 15.764 62.4284 16.2888C63.15 16.7917 63.6967 17.4915 64.0684 18.388C64.8337 17.5571 65.6319 16.8683 66.4628 16.3216C67.3156 15.7749 68.2449 15.5016 69.2508 15.5016C70.9564 15.5016 72.2137 16.0592 73.0228 17.1744C73.8319 18.2896 74.2364 19.864 74.2364 21.8976V32H70.4316V22.3896C70.4316 21.0557 70.2239 20.1155 69.8084 19.5688C69.4148 19.0221 68.8025 18.7488 67.9716 18.7488C66.9657 18.7488 65.8396 19.4157 64.5932 20.7496V32H60.8212V22.3896C60.8212 21.0557 60.6135 20.1155 60.198 19.5688C59.8044 19.0221 59.1812 18.7488 58.3284 18.7488C57.3225 18.7488 56.1964 19.4157 54.95 20.7496V32H51.178ZM85.709 32.3936C84.222 32.3936 82.8772 32.0656 81.6746 31.4096C80.4719 30.7317 79.5207 29.7696 78.821 28.5232C78.1212 27.2549 77.7714 25.7352 77.7714 23.964C77.7714 22.2147 78.1212 20.7059 78.821 19.4376C79.5426 18.1693 80.4719 17.1963 81.609 16.5184C82.746 15.8405 83.9378 15.5016 85.1842 15.5016C86.6492 15.5016 87.8738 15.8296 88.8578 16.4856C89.8418 17.1197 90.5852 18.0163 91.0882 19.1752C91.5911 20.3123 91.8426 21.6352 91.8426 23.144C91.8426 23.9312 91.7879 24.5435 91.6786 24.9808H81.445C81.6199 26.4021 82.1338 27.5064 82.9866 28.2936C83.8394 29.0808 84.9108 29.4744 86.201 29.4744C86.9007 29.4744 87.5458 29.376 88.1362 29.1792C88.7484 28.9605 89.3498 28.6653 89.9402 28.2936L91.2194 30.6552C90.454 31.1581 89.6012 31.5736 88.661 31.9016C87.7207 32.2296 86.7367 32.3936 85.709 32.3936ZM81.4122 22.4224H88.5626C88.5626 21.176 88.2892 20.2029 87.7426 19.5032C87.1959 18.7816 86.3759 18.4208 85.2826 18.4208C84.3423 18.4208 83.5004 18.7707 82.757 19.4704C82.0354 20.1483 81.5871 21.1323 81.4122 22.4224ZM95.4452 32V15.8952H98.5612L98.8236 18.7488H98.9548C99.5233 17.6992 100.212 16.9011 101.021 16.3544C101.83 15.7859 102.661 15.5016 103.514 15.5016C104.279 15.5016 104.892 15.6109 105.351 15.8296L104.695 19.1096C104.411 19.0221 104.148 18.9565 103.908 18.9128C103.667 18.8691 103.372 18.8472 103.022 18.8472C102.388 18.8472 101.721 19.0987 101.021 19.6016C100.321 20.0827 99.7201 20.9355 99.2172 22.16V32H95.4452ZM110.719 32.3936C109.32 32.3936 108.172 31.9563 107.275 31.0816C106.401 30.2069 105.963 29.0699 105.963 27.6704C105.963 25.9429 106.718 24.6091 108.227 23.6688C109.735 22.7067 112.141 22.0507 115.443 21.7008C115.421 20.848 115.191 20.1155 114.754 19.5032C114.338 18.8691 113.584 18.552 112.491 18.552C111.703 18.552 110.927 18.7051 110.162 19.0112C109.418 19.3173 108.686 19.6891 107.964 20.1264L106.587 17.6008C107.483 17.0323 108.489 16.5403 109.604 16.1248C110.741 15.7093 111.944 15.5016 113.212 15.5016C115.224 15.5016 116.722 16.1029 117.706 17.3056C118.712 18.4864 119.215 20.2029 119.215 22.4552V32H116.099L115.836 30.2288H115.705C114.983 30.8411 114.207 31.3549 113.376 31.7704C112.567 32.1859 111.682 32.3936 110.719 32.3936ZM111.933 29.4416C112.589 29.4416 113.179 29.2885 113.704 28.9824C114.251 28.6544 114.83 28.2171 115.443 27.6704V24.0624C113.256 24.3467 111.736 24.7731 110.883 25.3416C110.031 25.8883 109.604 26.5661 109.604 27.3752C109.604 28.0968 109.823 28.6216 110.26 28.9496C110.698 29.2776 111.255 29.4416 111.933 29.4416Z" fill="#1C00FF"/>
<circle cx="38.5" cy="10.7358" r="2.5" fill="#1C00FF"/>
<circle cx="47.5" cy="10.7358" r="2.5" fill="#1C00FF"/>
</svg>
